<?xml version="1.0" standalone="no"?>
<!DOCTYPE svg PUBLIC "-//W3C//DTD SVG 20010904//EN"
 "http://www.w3.org/TR/2001/REC-SVG-20010904/DTD/svg10.dtd">
<svg version="1.0" xmlns="http://www.w3.org/2000/svg"
 width="500.000000pt" height="500.000000pt" viewBox="0 0 500.000000 500.000000"
 preserveAspectRatio="xMidYMid meet">
<metadata>
Created by potrace 1.14, written by Peter Selinger 2001-2017
</metadata>
<g transform="translate(0.000000,500.000000) scale(0.100000,-0.100000)"
fill="#000000" stroke="none">
<path d="M2195 3634 c-16 -7 -44 -13 -61 -14 -16 0 -51 -13 -77 -30 -26 -16
-47 -26 -48 -22 0 4 -4 -3 -9 -15 -5 -12 -19 -27 -30 -33 -20 -11 -21 -10 -15
9 4 15 2 21 -9 21 -9 0 -18 -11 -22 -25 -3 -14 -10 -25 -15 -25 -12 0 -11 17
2 43 12 22 12 22 -10 3 -27 -24 -27 -48 1 -97 31 -56 16 -69 -78 -69 l-74 0
-2 -207 -3 -206 -130 158 c-71 87 -148 180 -170 206 l-40 49 -87 0 -88 0 0
-400 0 -400 105 0 105 0 0 205 c0 113 3 205 8 205 4 0 16 -13 27 -28 11 -15
62 -79 115 -142 141 -171 161 -198 150 -205 -16 -10 -12 -55 5 -55 30 0 35
-39 35 -272 1 -351 15 -420 103 -515 50 -53 50 -63 -3 -114 -14 -14 -38 -46
-53 -71 -15 -26 -42 -59 -61 -75 -33 -27 -136 -188 -136 -211 0 -9 157 -12
663 -10 l662 3 0 110 c0 107 -5 170 -20 248 l-7 37 61 0 61 0 1 138 1 137 19
-40 c10 -22 19 -62 19 -90 0 -36 3 -46 10 -35 15 24 12 60 -11 116 -26 63 -21
91 13 73 21 -11 22 -11 9 4 -13 17 -9 82 7 89 4 2 20 29 37 60 l30 57 12 -42
c7 -23 13 -59 13 -79 0 -21 4 -38 10 -38 12 0 17 114 7 167 -7 36 -4 48 23 95
17 29 49 82 70 118 l38 65 -34 3 c-20 2 -31 8 -29 15 2 7 6 24 9 38 5 23 10
26 58 28 179 6 299 110 328 282 5 35 10 169 10 297 l0 232 -110 0 -110 0 0
-252 c0 -229 -2 -257 -20 -296 -21 -46 -64 -72 -119 -72 -25 0 -33 7 -51 45
-12 25 -40 64 -61 87 -39 42 -39 42 -39 126 0 58 3 81 11 76 8 -5 8 -1 0 14
-13 25 -14 35 -2 27 6 -3 6 7 0 27 -5 18 -9 50 -9 71 0 36 1 37 16 22 19 -19
31 -66 46 -182 10 -72 9 -85 -6 -108 -19 -28 -14 -47 7 -26 7 7 13 47 16 92 4
96 -21 208 -55 249 -16 18 -24 41 -24 64 0 35 -1 36 -40 36 -26 0 -54 9 -78
24 -20 13 -54 29 -74 36 -54 17 -47 24 20 18 31 -3 66 -2 77 2 16 5 9 11 -35
25 -72 24 -188 24 -226 -1 -24 -17 -27 -17 -38 -1 -7 9 -21 14 -32 12 -25 -6
-130 46 -126 63 1 7 -6 15 -15 18 -10 3 -38 14 -63 25 -111 46 -297 63 -365
33z m869 -253 c-2 -3 -12 3 -22 13 -16 17 -16 18 5 5 12 -7 20 -15 17 -18z
m-1523 -238 c89 -109 169 -206 177 -215 12 -15 10 -20 -22 -48 -20 -18 -36
-41 -36 -51 0 -12 -49 39 -127 133 l-128 153 -3 -248 -2 -247 -65 0 -65 0 0
360 0 360 54 0 55 0 162 -197z m298 155 c-12 -24 -28 -61 -35 -83 l-13 -40 0
76 c-1 42 2 79 6 82 3 4 19 7 35 7 l28 0 -21 -42z m1299 6 l4 -29 -26 24 c-32
30 -33 38 -3 36 16 -1 23 -9 25 -31z m517 -204 c0 -265 -10 -317 -70 -387 -46
-53 -132 -94 -211 -101 -60 -4 -64 -4 -64 17 0 25 16 28 24 4 3 -10 4 -2 2 17
-2 19 -6 42 -10 50 -5 12 1 16 26 18 81 6 123 36 154 107 14 33 18 83 22 278
l5 238 61 -3 61 -3 0 -235z m-1930 -351 c11 -17 -1 -21 -15 -4 -8 9 -8 15 -2
15 6 0 14 -5 17 -11z m1555 -308 c0 -17 -32 -50 -44 -45 -10 4 -12 -2 -8 -22
4 -23 2 -26 -12 -21 -10 4 -22 7 -27 7 -5 0 -9 19 -9 41 0 34 2 39 14 30 10
-9 15 -8 19 3 6 14 67 20 67 7z m-1187 -75 c38 -36 50 -58 72 -127 14 -46 29
-111 32 -144 l5 -61 -53 -41 c-30 -22 -65 -50 -78 -62 -13 -11 -26 -21 -27
-21 -2 0 -11 15 -21 33 -16 28 -18 60 -18 240 0 174 2 209 15 217 23 14 25 13
73 -34z m-176 14 l42 0 3 -212 c3 -212 3 -213 31 -260 15 -26 27 -53 27 -60 0
-8 -15 -29 -33 -46 l-33 -32 -39 37 c-74 74 -80 99 -83 357 l-3 229 23 -7 c13
-3 42 -6 65 -6z m1286 -66 c-4 -10 -10 -8 -24 10 -28 35 -24 54 5 27 14 -13
22 -29 19 -37z m-74 -86 c-1 -35 -2 -38 -8 -18 -7 23 -4 60 5 60 2 0 4 -19 3
-42z m41 28 c0 -3 -4 -8 -10 -11 -5 -3 -10 -1 -10 4 0 6 5 11 10 11 6 0 10 -2
10 -4z m-347 -128 c9 -21 12 -40 7 -43 -11 -7 -25 20 -34 65 -8 42 6 31 27
-22z m194 -10 c-3 -7 -5 -2 -5 12 0 14 2 19 5 13 2 -7 2 -19 0 -25z m-94 -103
c3 11 4 2 1 -20 -3 -29 -2 -36 5 -25 9 12 11 11 11 -7 0 -12 3 -30 6 -40 5
-16 4 -16 -10 1 -9 11 -16 16 -16 10 -2 -30 -30 78 -29 111 l1 40 12 -45 c10
-35 14 -41 19 -25z m-13 -117 c0 -9 3 -9 10 2 7 10 10 -7 10 -57 0 -40 -3 -73
-7 -73 -7 0 -53 153 -53 174 0 15 40 -31 40 -46z m63 -102 c11 -54 13 -57 18
-30 l7 29 1 -32 c1 -30 -1 -33 -30 -33 -31 0 -31 1 -25 38 3 20 6 57 7 82 1
25 3 36 5 25 3 -11 10 -47 17 -79z m-46 -58 c-3 -8 -6 -5 -6 6 -1 11 2 17 5
13 3 -3 4 -12 1 -19z"/>
<path d="M3223 3004 c0 -23 1 -24 9 -10 7 12 7 21 0 28 -6 6 -9 0 -9 -18z"/>
<path d="M1225 2486 c-199 -48 -329 -228 -311 -433 10 -127 90 -259 189 -317
138 -80 382 -72 524 17 l41 26 3 119 c2 66 2 143 1 171 l-4 51 -99 0 -99 0 0
-114 0 -114 -31 -11 c-44 -15 -130 -14 -170 3 -41 17 -94 68 -117 110 -10 19
-16 56 -16 97 0 57 4 74 30 115 73 119 265 136 363 31 l23 -26 37 36 c20 19
51 47 69 60 17 14 32 31 32 38 0 16 -69 79 -111 101 -104 53 -237 68 -354 40z
m217 -37 c62 -13 135 -48 161 -77 22 -24 13 -49 -27 -76 -24 -15 -27 -15 -62
9 -80 54 -198 61 -285 18 -188 -96 -186 -377 4 -474 50 -26 175 -28 235 -4
l42 17 0 109 0 109 60 0 60 0 0 -139 0 -139 -32 -15 c-172 -81 -316 -88 -448
-22 -53 27 -129 105 -159 162 -68 135 -36 318 75 423 98 92 235 129 376 99z"/>
<path d="M80 2090 l0 -400 110 0 110 0 2 208 3 207 40 -52 c22 -28 98 -121
169 -207 l129 -156 88 0 89 0 0 400 0 400 -110 0 -110 0 -2 -204 -3 -205 -70
87 c-38 47 -114 139 -168 204 l-98 118 -90 0 -89 0 0 -400z m192 316 c18 -25
110 -137 203 -250 l170 -206 3 250 2 250 65 0 65 0 0 -360 0 -361 -57 3 -57 3
-146 177 c-80 97 -161 196 -181 220 -20 23 -46 54 -58 68 l-20 25 -1 -247 0
-248 -65 0 -65 0 0 360 0 360 54 0 c52 0 55 -1 88 -44z"/>
<path d="M3370 2434 c0 -48 -2 -55 -14 -45 -12 10 -13 8 -9 -8 3 -12 8 -21 12
-21 4 0 7 -10 7 -22 0 -13 1 -164 2 -335 l2 -313 314 0 314 0 5 33 c2 17 2 58
-1 90 l-5 57 -203 0 -204 0 0 65 0 65 175 0 175 0 0 90 0 90 -137 2 c-76 1
-155 1 -175 0 l-38 -2 0 65 0 65 200 0 200 0 0 90 0 90 -310 0 -310 0 0 -56z
m575 -36 l0 -48 -197 0 -198 0 0 -105 0 -105 175 0 175 0 0 -45 0 -45 -175 0
-175 0 0 -110 0 -110 205 0 205 0 0 -50 0 -50 -270 0 -270 0 0 360 0 360 263
-2 262 -3 0 -47z"/>
<path d="M4100 2090 l0 -400 110 0 110 0 2 205 3 205 35 -45 c19 -25 95 -117
168 -205 l133 -160 89 0 90 0 0 400 0 400 -110 0 -110 0 -2 -206 -3 -207 -169
207 -168 206 -89 0 -89 0 0 -400z m186 321 c16 -21 108 -135 204 -252 l175
-212 3 252 2 252 63 -3 62 -3 3 -357 3 -358 -58 0 -58 0 -200 245 c-110 134
-203 244 -207 245 -5 0 -8 -110 -8 -245 l0 -245 -65 0 -65 0 0 353 c0 195 3
357 7 360 3 4 30 7 58 7 48 0 53 -3 81 -39z"/>
<path d="M3282 2207 c-8 -10 -11 -25 -7 -38 7 -20 8 -20 17 -5 5 9 8 26 6 38
-3 19 -4 20 -16 5z"/>
<path d="M3180 2025 c0 -14 4 -25 9 -25 4 0 6 11 3 25 -2 14 -6 25 -8 25 -2 0
-4 -11 -4 -25z"/>
<path d="M3130 1962 c0 -12 19 -26 26 -19 2 2 -2 10 -11 17 -9 8 -15 8 -15 2z"/>
<path d="M3000 1619 c0 -11 5 -17 10 -14 6 3 10 13 10 21 0 8 -4 14 -10 14 -5
0 -10 -9 -10 -21z"/>
</g>
</svg>
